<svg width="36" height="37" viewBox="0 0 36 37" fill="none" xmlns="http://www.w3.org/2000/svg">
<rect width="36" height="36" transform="translate(0 0.0479736)" fill="#635BFF"/>
<path d="M15.205 13.5025C15.205 13.8396 15.105 14.1692 14.9177 14.4495C14.7304 14.7298 14.4642 14.9483 14.1527 15.0773C13.8413 15.2063 13.4986 15.2401 13.1679 15.1743C12.8373 15.1085 12.5335 14.9462 12.2951 14.7078C12.0568 14.4694 11.8944 14.1657 11.8287 13.8351C11.7629 13.5044 11.7966 13.1617 11.9256 12.8502C12.0547 12.5388 12.2731 12.2725 12.5535 12.0852C12.8338 11.8979 13.1633 11.798 13.5004 11.798C13.9525 11.798 14.3861 11.9776 14.7057 12.2972C15.0254 12.6169 15.205 13.0504 15.205 13.5025Z" fill="white"/>
<path d="M14.8186 16.3437V23.8744C14.8189 23.93 14.8083 23.9851 14.7872 24.0365C14.7662 24.0879 14.7351 24.1346 14.696 24.174C14.6568 24.2134 14.6102 24.2447 14.5589 24.266C14.5076 24.2873 14.4526 24.2983 14.3971 24.2983H12.6005C12.5449 24.2984 12.4899 24.2876 12.4385 24.2664C12.3872 24.2452 12.3405 24.2141 12.3012 24.1748C12.2619 24.1355 12.2308 24.0889 12.2096 24.0375C12.1884 23.9862 12.1776 23.9311 12.1777 23.8756V16.3437C12.1777 16.2316 12.2223 16.1241 12.3016 16.0448C12.3808 15.9656 12.4883 15.921 12.6005 15.921H14.3971C14.509 15.9213 14.6162 15.966 14.6952 16.0452C14.7743 16.1245 14.8186 16.2318 14.8186 16.3437Z" fill="white"/>
<path d="M24.2099 20.2642V23.9097C24.2101 23.9607 24.2001 24.0113 24.1806 24.0586C24.1612 24.1058 24.1326 24.1487 24.0964 24.1848C24.0603 24.2209 24.0174 24.2495 23.9702 24.269C23.923 24.2885 23.8724 24.2984 23.8213 24.2983H21.8895C21.8384 24.2984 21.7878 24.2885 21.7406 24.269C21.6934 24.2495 21.6504 24.2209 21.6143 24.1848C21.5782 24.1487 21.5496 24.1058 21.5301 24.0586C21.5106 24.0113 21.5007 23.9607 21.5008 23.9097V20.3767C21.5008 19.8494 21.6554 18.0676 20.1224 18.0676C18.9349 18.0676 18.6929 19.2869 18.6452 19.8347V23.9097C18.6452 24.0118 18.605 24.1098 18.5333 24.1825C18.4617 24.2552 18.3643 24.2968 18.2622 24.2983H16.3963C16.3453 24.2983 16.2948 24.2882 16.2477 24.2687C16.2007 24.2491 16.1579 24.2205 16.1219 24.1844C16.0859 24.1483 16.0574 24.1054 16.038 24.0583C16.0186 24.0112 16.0086 23.9606 16.0088 23.9097V16.3108C16.0086 16.2598 16.0186 16.2093 16.038 16.1622C16.0574 16.115 16.0859 16.0722 16.1219 16.0361C16.1579 16 16.2007 15.9713 16.2477 15.9518C16.2948 15.9322 16.3453 15.9222 16.3963 15.9222H18.2622C18.3653 15.9222 18.4641 15.9631 18.537 16.036C18.6099 16.1089 18.6508 16.2077 18.6508 16.3108V16.9676C19.0917 16.3062 19.7452 15.796 21.1395 15.796C24.2281 15.796 24.2099 18.6801 24.2099 20.2642Z" fill="white"/>
</svg>
