<svg width="282" height="44" viewBox="0 0 282 44" fill="none" xmlns="http://www.w3.org/2000/svg">
<g clip-path="url(#clip0_190_213)">
<path d="M43.0478 22.0004C43.0478 10.113 33.4112 0.47644 21.5239 0.47644C9.63651 0.47644 -9.15527e-05 10.113 -9.15527e-05 22.0004C-9.15527e-05 33.8877 9.63651 43.5243 21.5239 43.5243C33.4112 43.5243 43.0478 33.8877 43.0478 22.0004Z" fill="#635BFF"/>
<path d="M23.4775 22.5378C23.4417 22.5414 23.4023 22.5414 23.3664 22.5414H20.9864L23.4775 22.5378Z" fill="#090909"/>
<path d="M29.2984 10.204H20.9863V16.369H9.72791V29.7745C9.72791 31.9967 11.5272 33.7961 13.7495 33.7961H27.1514V22.5377H33.32V14.2256C33.32 12.0069 31.5171 10.204 29.2984 10.204ZM26.0868 21.0323C25.8144 21.5054 25.4416 21.8746 24.9649 22.1398C24.5169 22.3907 24.0222 22.5233 23.4774 22.5377C23.4416 22.5413 23.4022 22.5413 23.3663 22.5413H20.9863V16.3762H23.3663C23.9541 16.3762 24.4846 16.5088 24.9649 16.7777C25.4416 17.0429 25.8144 17.4121 26.0868 17.8816C26.3556 18.3512 26.4918 18.8781 26.4918 19.4552C26.4918 20.0322 26.3556 20.5591 26.0868 21.0323Z" fill="white"/>
</g>
<path d="M57.5372 27.7896H65.6352V31.2867H53.8166V12.7134H57.5372V27.7923V27.7896Z" fill="#090909"/>
<path d="M82.4371 31.2867L81.1099 27.6846H73.1438L71.83 31.2867H67.8213L74.9717 12.7134H79.3627L86.4996 31.2867H82.4371ZM74.3795 24.2547H79.8473L77.1255 16.8001L74.3768 24.2547H74.3795Z" fill="#090909"/>
<path d="M98.3425 31.2867L94.0566 24.6613H91.849V31.2867H88.1284V12.7134H96.0407C97.8283 12.7134 99.3278 13.2949 100.537 14.4552C101.745 15.6155 102.351 17.0639 102.351 18.8004C102.351 20.1142 101.969 21.2745 101.202 22.2787C100.434 23.2829 99.4248 23.9801 98.1729 24.3759L102.814 31.2894H98.3452L98.3425 31.2867ZM91.849 16.2078V21.4253H95.9626C96.6895 21.4253 97.2979 21.1776 97.7906 20.6822C98.2806 20.1869 98.5256 19.5677 98.5256 18.8219C98.5256 18.0762 98.2806 17.4543 97.7906 16.9562C97.3006 16.4555 96.6895 16.2078 95.9626 16.2078H91.849Z" fill="#090909"/>
<path d="M118.744 31.2867L117.417 27.6846H109.45L108.137 31.2867H104.128L111.278 12.7134H115.669L122.806 31.2867H118.744ZM110.686 24.2547H116.154L113.432 16.8001L110.683 24.2547H110.686Z" fill="#090909"/>
<path d="M136.544 12.7107C138.297 12.7107 139.888 13.1145 141.315 13.9195C142.744 14.7271 143.862 15.8363 144.675 17.2524C145.485 18.6685 145.892 20.2461 145.892 21.9906C145.892 23.2963 145.652 24.524 145.176 25.6708C144.699 26.8177 144.048 27.8057 143.224 28.6295C142.4 29.4533 141.409 30.1021 140.252 30.576C139.094 31.0498 137.858 31.2867 136.544 31.2867H129.459V12.7134H136.544V12.7107ZM136.517 29.7199C138.709 29.7199 140.534 28.9849 141.999 27.5123C143.463 26.0397 144.193 24.2009 144.193 21.9906C144.193 20.5368 143.859 19.2204 143.194 18.0412C142.529 16.862 141.611 15.9413 140.44 15.2736C139.269 14.6087 137.963 14.2748 136.515 14.2748H131.098V29.7199H136.515H136.517Z" fill="#090909"/>
<path d="M161.321 31.2867L159.204 26.1985H149.451L147.335 31.2867H145.52L153.354 12.7134H155.352L163.186 31.2867H161.321ZM150.094 24.6613H158.585L154.326 14.4875L150.094 24.6613Z" fill="#090909"/>
<path d="M171.494 31.6151C170.135 31.6151 168.834 31.3513 167.591 30.8263C166.347 30.3013 165.308 29.5825 164.476 28.6699L165.397 27.4342C166.096 28.223 166.99 28.8637 168.073 29.3591C169.155 29.8544 170.296 30.1021 171.497 30.1021C172.916 30.1021 174.103 29.7683 175.053 29.1033C176.004 28.4383 176.48 27.5795 176.48 26.5269C176.48 26.1419 176.408 25.7839 176.262 25.4554C176.117 25.127 175.942 24.8443 175.737 24.6074C175.53 24.3705 175.258 24.1497 174.916 23.9424C174.574 23.7378 174.267 23.5709 173.995 23.4497C173.723 23.3259 173.379 23.2047 172.964 23.0809C172.547 22.9571 172.235 22.8736 172.025 22.8252C171.815 22.7767 171.535 22.7175 171.185 22.6475C170.563 22.5155 169.981 22.3594 169.443 22.1817C168.904 22.0013 168.355 21.7644 167.793 21.4656C167.233 21.1668 166.753 20.8383 166.36 20.4722C165.967 20.1087 165.644 19.6618 165.394 19.1315C165.143 18.6011 165.02 18.0196 165.02 17.3896C165.02 15.9009 165.615 14.6921 166.807 13.7687C168 12.8453 169.518 12.3822 171.368 12.3822C172.612 12.3822 173.75 12.5949 174.779 13.0202C175.807 13.4456 176.647 14.0271 177.296 14.7621L176.429 15.9709C175.947 15.3759 175.247 14.8805 174.332 14.4848C173.417 14.0917 172.428 13.8925 171.368 13.8925C170.027 13.8925 168.915 14.2156 168.035 14.859C167.154 15.5024 166.713 16.3209 166.713 17.3116C166.713 19.1423 168.355 20.3833 171.642 21.0322C171.93 21.0941 172.208 21.156 172.472 21.2233C172.735 21.2906 173.064 21.3795 173.457 21.4925C173.85 21.6056 174.216 21.7402 174.547 21.8937C174.881 22.0471 175.236 22.2248 175.619 22.4267C176.001 22.6286 176.338 22.8655 176.631 23.1374C176.924 23.4094 177.194 23.7028 177.439 24.0178C177.684 24.3328 177.872 24.6989 178.004 25.1162C178.136 25.5335 178.2 25.9723 178.2 26.438C178.2 27.4288 177.904 28.3199 177.312 29.1141C176.72 29.9083 175.915 30.5221 174.895 30.9609C173.874 31.3997 172.741 31.6178 171.497 31.6178L171.494 31.6151Z" fill="#090909"/>
<path d="M193.279 12.7107H194.949V31.284H193.279V22.7256H181.566V31.284H179.923V12.7107H181.566V21.1641H193.279V12.7107Z" fill="#090909"/>
<path d="M206.676 21.4522C207.753 21.6972 208.63 22.2652 209.306 23.1536C209.982 24.0421 210.318 25.0839 210.318 26.2766C210.318 27.7142 209.836 28.9068 208.872 29.8598C207.909 30.8102 206.703 31.2867 205.257 31.2867H197.04V12.7134H204.611C205.935 12.7134 207.039 13.1522 207.93 14.0272C208.819 14.9048 209.266 15.9978 209.266 17.3143C209.266 18.2431 209.021 19.0858 208.531 19.845C208.041 20.6041 207.421 21.1399 206.678 21.4549L206.676 21.4522ZM204.258 14.221H198.658V20.9245H204.258C205.16 20.9245 205.938 20.5988 206.592 19.9446C207.246 19.2904 207.572 18.4962 207.572 17.5593C207.572 16.6224 207.254 15.8094 206.619 15.174C205.984 14.5387 205.198 14.221 204.261 14.221H204.258ZM204.901 29.771C205.954 29.771 206.832 29.4129 207.537 28.6995C208.242 27.9861 208.595 27.0977 208.595 26.037C208.595 24.9762 208.242 24.1067 207.537 23.4013C206.832 22.696 205.954 22.3433 204.901 22.3433H198.658V29.771H204.901Z" fill="#090909"/>
<path d="M221.165 31.6151C219.805 31.6151 218.527 31.3674 217.326 30.8721C216.125 30.3767 215.094 29.7037 214.238 28.8529C213.379 28.0022 212.701 26.9846 212.208 25.7973C211.713 24.6101 211.465 23.342 211.465 21.9906C211.465 20.1949 211.888 18.5607 212.733 17.0935C213.578 15.6263 214.741 14.474 216.222 13.6368C217.703 12.7995 219.35 12.3822 221.165 12.3822C222.979 12.3822 224.614 12.7995 226.094 13.6368C227.575 14.474 228.738 15.6263 229.583 17.0935C230.429 18.5607 230.851 20.1949 230.851 21.9906C230.851 23.3394 230.601 24.6101 230.103 25.7973C229.602 26.9846 228.926 28.0049 228.073 28.8529C227.22 29.7037 226.191 30.3767 224.99 30.8721C223.79 31.3674 222.514 31.6151 221.165 31.6151ZM221.165 29.9971C222.654 29.9971 224.005 29.6498 225.219 28.9579C226.433 28.266 227.389 27.3049 228.084 26.08C228.781 24.8524 229.128 23.4901 229.128 21.9906C229.128 20.491 228.781 19.1315 228.084 17.9092C227.386 16.687 226.431 15.7286 225.219 15.0367C224.005 14.3448 222.654 13.9975 221.165 13.9975C219.676 13.9975 218.322 14.3448 217.102 15.0367C215.883 15.7286 214.927 16.687 214.23 17.9092C213.533 19.1315 213.185 20.491 213.185 21.9906C213.185 23.1132 213.39 24.1712 213.802 25.1646C214.214 26.1608 214.771 27.0088 215.479 27.7141C216.184 28.4195 217.03 28.9768 218.015 29.3833C219 29.7898 220.05 29.9944 221.162 29.9944L221.165 29.9971Z" fill="#090909"/>
<path d="M246.805 31.2867L244.689 26.1985H234.935L232.819 31.2867H231.005L238.839 12.7134H240.837L248.671 31.2867H246.805ZM235.579 24.6613H244.07L239.811 14.4875L235.579 24.6613Z" fill="#090909"/>
<path d="M261.752 31.2867L255.377 23.4255H252.354V31.2867H250.712V12.7134H257.98C259.539 12.7134 260.842 13.2249 261.884 14.2506C262.926 15.2763 263.448 16.5551 263.448 18.0897C263.448 19.6242 262.929 20.8734 261.889 21.8964C260.85 22.9167 259.555 23.4282 258.005 23.4282H257.388L263.804 31.2894H261.752V31.2867ZM252.354 14.2775V21.9664H257.953C259.03 21.9664 259.935 21.6029 260.662 20.8761C261.389 20.1492 261.752 19.2338 261.752 18.1273C261.752 17.0209 261.389 16.1055 260.662 15.3732C259.935 14.641 259.033 14.2748 257.953 14.2748H252.354V14.2775Z" fill="#090909"/>
<path d="M272.653 12.7107C274.405 12.7107 275.996 13.1145 277.423 13.9195C278.853 14.7271 279.97 15.8363 280.783 17.2524C281.593 18.6685 282 20.2461 282 21.9906C282 23.2963 281.76 24.524 281.284 25.6708C280.807 26.8177 280.156 27.8057 279.332 28.6295C278.508 29.4533 277.517 30.1021 276.36 30.576C275.202 31.0498 273.966 31.2867 272.653 31.2867H265.567V12.7134H272.653V12.7107ZM272.626 29.7199C274.817 29.7199 276.643 28.9849 278.107 27.5123C279.572 26.0397 280.301 24.2009 280.301 21.9906C280.301 20.5368 279.967 19.2204 279.302 18.0412C278.637 16.862 277.719 15.9413 276.548 15.2736C275.377 14.6087 274.071 14.2748 272.623 14.2748H267.206V29.7199H272.623H272.626Z" fill="#090909"/>
<defs>
<clipPath id="clip0_190_213">
<rect width="43.0479" height="43.0479" fill="white" transform="translate(0 0.476074)"/>
</clipPath>
</defs>
</svg>
