<svg width="148" height="50" viewBox="0 0 148 50" fill="none" xmlns="http://www.w3.org/2000/svg">
<rect width="148" height="50" rx="10" fill="#635BFF"/>
<path d="M23.728 31V20.984H20.192V19.64H28.64V20.984H25.104V31H23.728ZM29.4712 31V22.52H30.6553L30.7192 24.664L30.5912 24.616C30.6979 23.8907 30.9272 23.3627 31.2792 23.032C31.6419 22.6907 32.1219 22.52 32.7193 22.52H33.5512V23.8H32.7352C32.3086 23.8 31.9513 23.88 31.6632 24.04C31.3859 24.1893 31.1726 24.4187 31.0232 24.728C30.8846 25.0267 30.8152 25.4107 30.8152 25.88V31H29.4712ZM35.6555 33.4V32.216H36.6315C36.9302 32.216 37.1488 32.168 37.2875 32.072C37.4368 31.9867 37.5488 31.8427 37.6235 31.64L37.9275 30.84H37.4635L34.3595 22.52H35.8315L38.3595 29.592L40.7755 22.52H42.2475L38.8075 32.072C38.6475 32.5307 38.4075 32.8667 38.0875 33.08C37.7675 33.2933 37.3248 33.4 36.7595 33.4H35.6555ZM48.3932 31V19.64H55.5293V20.984H49.0812L49.7692 20.28V25.496L49.0812 24.792H55.2413V26.104H49.0812L49.7692 25.4V31H48.3932ZM57.3144 31V22.52H58.4984L58.5624 24.664L58.4344 24.616C58.541 23.8907 58.7704 23.3627 59.1224 23.032C59.485 22.6907 59.965 22.52 60.5624 22.52H61.3944V23.8H60.5784C60.1517 23.8 59.7944 23.88 59.5064 24.04C59.229 24.1893 59.0157 24.4187 58.8664 24.728C58.7277 25.0267 58.6584 25.4107 58.6584 25.88V31H57.3144ZM66.2082 31.192C65.4082 31.192 64.7149 31.0107 64.1282 30.648C63.5522 30.2853 63.1042 29.7733 62.7842 29.112C62.4749 28.44 62.3202 27.656 62.3202 26.76C62.3202 25.864 62.4749 25.0853 62.7842 24.424C63.1042 23.7627 63.5469 23.2507 64.1122 22.888C64.6882 22.5147 65.3656 22.328 66.1442 22.328C66.8802 22.328 67.5309 22.504 68.0962 22.856C68.6616 23.1973 69.0989 23.6987 69.4082 24.36C69.7282 25.0213 69.8882 25.8267 69.8882 26.776V27.176H63.7282C63.7816 28.0827 64.0216 28.7653 64.4482 29.224C64.8856 29.6827 65.4722 29.912 66.2082 29.912C66.7629 29.912 67.2162 29.784 67.5682 29.528C67.9309 29.2613 68.1816 28.9147 68.3202 28.488L69.7602 28.6C69.5362 29.3573 69.1096 29.9813 68.4802 30.472C67.8616 30.952 67.1042 31.192 66.2082 31.192ZM63.7282 25.992H68.4162C68.3522 25.1707 68.1122 24.568 67.6962 24.184C67.2909 23.8 66.7736 23.608 66.1442 23.608C65.4936 23.608 64.9549 23.8107 64.5282 24.216C64.1122 24.6107 63.8456 25.2027 63.7282 25.992ZM75.1807 31.192C74.3807 31.192 73.6874 31.0107 73.1007 30.648C72.5247 30.2853 72.0767 29.7733 71.7567 29.112C71.4474 28.44 71.2927 27.656 71.2927 26.76C71.2927 25.864 71.4474 25.0853 71.7567 24.424C72.0767 23.7627 72.5194 23.2507 73.0847 22.888C73.6607 22.5147 74.3381 22.328 75.1167 22.328C75.8527 22.328 76.5034 22.504 77.0687 22.856C77.6341 23.1973 78.0714 23.6987 78.3807 24.36C78.7007 25.0213 78.8607 25.8267 78.8607 26.776V27.176H72.7007C72.7541 28.0827 72.9941 28.7653 73.4207 29.224C73.8581 29.6827 74.4447 29.912 75.1807 29.912C75.7354 29.912 76.1887 29.784 76.5407 29.528C76.9034 29.2613 77.1541 28.9147 77.2927 28.488L78.7327 28.6C78.5087 29.3573 78.0821 29.9813 77.4527 30.472C76.8341 30.952 76.0767 31.192 75.1807 31.192ZM72.7007 25.992H77.3887C77.3247 25.1707 77.0847 24.568 76.6687 24.184C76.2634 23.8 75.7461 23.608 75.1167 23.608C74.4661 23.608 73.9274 23.8107 73.5007 24.216C73.0847 24.6107 72.8181 25.2027 72.7007 25.992ZM85.3495 31V19.64H88.8695C90.6188 19.64 91.9628 20.136 92.9015 21.128C93.8508 22.1093 94.3255 23.512 94.3255 25.336C94.3255 27.1493 93.8615 28.5467 92.9335 29.528C92.0055 30.5093 90.6828 31 88.9655 31H85.3495ZM86.7255 29.656H88.8695C90.2028 29.656 91.2055 29.2987 91.8775 28.584C92.5495 27.8587 92.8855 26.776 92.8855 25.336C92.8855 23.8747 92.5495 22.7867 91.8775 22.072C91.2055 21.3467 90.2028 20.984 88.8695 20.984H86.7255V29.656ZM100.02 31.192C99.2201 31.192 98.5268 31.0107 97.9401 30.648C97.3641 30.2853 96.9161 29.7733 96.5961 29.112C96.2868 28.44 96.1321 27.656 96.1321 26.76C96.1321 25.864 96.2868 25.0853 96.5961 24.424C96.9161 23.7627 97.3588 23.2507 97.9241 22.888C98.5001 22.5147 99.1775 22.328 99.9561 22.328C100.692 22.328 101.343 22.504 101.908 22.856C102.473 23.1973 102.911 23.6987 103.22 24.36C103.54 25.0213 103.7 25.8267 103.7 26.776V27.176H97.5401C97.5935 28.0827 97.8335 28.7653 98.2601 29.224C98.6975 29.6827 99.2841 29.912 100.02 29.912C100.575 29.912 101.028 29.784 101.38 29.528C101.743 29.2613 101.993 28.9147 102.132 28.488L103.572 28.6C103.348 29.3573 102.921 29.9813 102.292 30.472C101.673 30.952 100.916 31.192 100.02 31.192ZM97.5401 25.992H102.228C102.164 25.1707 101.924 24.568 101.508 24.184C101.103 23.8 100.585 23.608 99.9561 23.608C99.3055 23.608 98.7668 23.8107 98.3401 24.216C97.9241 24.6107 97.6575 25.2027 97.5401 25.992ZM105.681 31V22.52H106.913L106.961 24.664L106.769 24.6C106.865 24.1307 107.03 23.7307 107.265 23.4C107.51 23.0587 107.809 22.7973 108.161 22.616C108.513 22.424 108.902 22.328 109.329 22.328C110.065 22.328 110.662 22.5307 111.121 22.936C111.59 23.3413 111.883 23.9067 112.001 24.632L111.745 24.616C111.83 24.1253 111.985 23.7147 112.209 23.384C112.443 23.0427 112.742 22.7813 113.105 22.6C113.467 22.4187 113.883 22.328 114.353 22.328C114.961 22.328 115.473 22.456 115.889 22.712C116.305 22.9573 116.619 23.32 116.833 23.8C117.046 24.28 117.153 24.8613 117.153 25.544V31H115.809V25.832C115.809 25.064 115.659 24.488 115.361 24.104C115.062 23.7093 114.619 23.512 114.033 23.512C113.638 23.512 113.291 23.608 112.993 23.8C112.705 23.992 112.481 24.2693 112.321 24.632C112.161 24.984 112.081 25.416 112.081 25.928V31H110.737V25.928C110.737 25.1707 110.603 24.5787 110.337 24.152C110.07 23.7253 109.622 23.512 108.993 23.512C108.598 23.512 108.251 23.608 107.953 23.8C107.665 23.992 107.435 24.2693 107.265 24.632C107.105 24.9947 107.025 25.4267 107.025 25.928V31H105.681ZM122.996 31.192C122.218 31.192 121.535 31.0107 120.948 30.648C120.362 30.2853 119.908 29.7733 119.588 29.112C119.268 28.44 119.108 27.656 119.108 26.76C119.108 25.8533 119.268 25.0693 119.588 24.408C119.908 23.7467 120.362 23.2347 120.948 22.872C121.535 22.5093 122.218 22.328 122.996 22.328C123.775 22.328 124.452 22.5093 125.028 22.872C125.615 23.2347 126.068 23.7467 126.388 24.408C126.708 25.0693 126.868 25.8533 126.868 26.76C126.868 27.656 126.708 28.44 126.388 29.112C126.068 29.7733 125.615 30.2853 125.028 30.648C124.452 31.0107 123.775 31.192 122.996 31.192ZM122.996 29.912C123.775 29.912 124.378 29.6347 124.804 29.08C125.242 28.5147 125.46 27.7413 125.46 26.76C125.46 25.7787 125.242 25.0107 124.804 24.456C124.378 23.8907 123.775 23.608 122.996 23.608C122.218 23.608 121.61 23.8907 121.172 24.456C120.735 25.0107 120.516 25.7787 120.516 26.76C120.516 27.7413 120.735 28.5147 121.172 29.08C121.61 29.6347 122.218 29.912 122.996 29.912Z" fill="white"/>
</svg>
