<svg width="36" height="37" viewBox="0 0 36 37" fill="none" xmlns="http://www.w3.org/2000/svg">
<rect width="36" height="36" transform="translate(0 0.0479736)" fill="#635BFF"/>
<path d="M25.7112 14.1501C25.1776 14.3831 24.6131 14.538 24.0352 14.6098C24.6444 14.2486 25.0998 13.6763 25.3149 13.0015C24.7448 13.3399 24.1209 13.5783 23.4703 13.7062C23.0716 13.2799 22.5539 12.9833 21.9844 12.8552C21.415 12.7271 20.8201 12.7733 20.2773 12.9878C19.7344 13.2024 19.2687 13.5753 18.9406 14.0581C18.6126 14.5409 18.4374 15.1112 18.4379 15.6949C18.4359 15.9177 18.4586 16.1401 18.5057 16.3579C17.3484 16.301 16.2162 16.0007 15.1829 15.4765C14.1496 14.9523 13.2386 14.216 12.5092 13.3157C12.1343 13.9561 12.0182 14.7156 12.1845 15.4388C12.3508 16.162 12.7871 16.7944 13.4041 17.2067C12.9436 17.1943 12.4928 17.0712 12.0898 16.8478V16.8795C12.0911 17.5509 12.3235 18.2012 12.7479 18.7214C13.1722 19.2416 13.7627 19.5998 14.4201 19.7358C14.1713 19.8012 13.915 19.8332 13.6578 19.8309C13.4726 19.8344 13.2875 19.8179 13.1058 19.7819C13.2942 20.3593 13.6567 20.8641 14.1437 21.2269C14.6307 21.5898 15.2181 21.7928 15.8252 21.8081C14.7964 22.6123 13.5282 23.0491 12.2224 23.0489C11.9898 23.0509 11.7572 23.0374 11.5264 23.0086C12.8578 23.867 14.4097 24.3206 15.9938 24.3142C21.3475 24.3142 24.2744 19.8799 24.2744 16.0365C24.2744 15.9082 24.2744 15.7843 24.2644 15.6604C24.8344 15.249 25.3247 14.7372 25.7112 14.1501Z" fill="white"/>
</svg>
