<svg width="36" height="37" viewBox="0 0 36 37" fill="none" xmlns="http://www.w3.org/2000/svg">
<rect width="36" height="36" transform="translate(0 0.0479736)" fill="#635BFF"/>
<path d="M25.2653 14.3803C24.9604 13.4421 23.9516 12.874 23.0232 12.7437C19.6837 12.389 16.316 12.389 12.9765 12.7437C12.0481 12.874 11.0365 13.4366 10.7344 14.3803C10.2591 16.8021 10.2591 19.2932 10.7344 21.715C11.0393 22.6518 12.0481 23.2213 12.9765 23.3516C16.316 23.7064 19.6837 23.7064 23.0232 23.3516C23.9516 23.2213 24.9632 22.6587 25.2653 21.715C25.7406 19.2932 25.7406 16.8021 25.2653 14.3803ZM16.1762 20.9681V15.1258L20.9321 18.047C19.3288 19.0322 17.7726 19.987 16.1762 20.9681Z" fill="white"/>
</svg>
